<?xml version="1.0" encoding="utf-8"?>
<!-- Generator: Adobe Illustrator 26.4.1, SVG Export Plug-In . SVG Version: 6.00 Build 0)  -->
<svg version="1.1" id="Capa_1" xmlns="http://www.w3.org/2000/svg" xmlns:xlink="http://www.w3.org/1999/xlink" x="0px" y="0px"
	 viewBox="0 0 2500 2438" style="enable-background:new 0 0 2500 2438;" xml:space="preserve">
<style type="text/css">
	.st0{fill:#001E2B;}
</style>
<g>
	<path class="st0" d="M1435.3,379.4c-89.5-106.2-166.7-214.3-182.3-236.6c-1.7-1.7-4.1-1.7-5.8,0c-15.6,22.3-92.8,130.4-182.3,236.6
		c-768.7,980.6,121.2,1642.3,121.2,1642.3l7.4,5c6.7,102.1,23.2,249,23.2,249h33.2h33.2c0,0,16.5-146.1,23.2-249l7.4-5.8
		C1314.1,2021.7,2204,1360.1,1435.3,379.4z M1249.3,2006.7c0,0-39.9-34-50.7-51.6v-1.7l48.1-1067.7c0-3.3,5-3.3,5,0l48.1,1067.7v1.7
		C1289.2,1972.7,1249.3,2006.7,1249.3,2006.7z"/>
</g>
</svg>
