<?xml version="1.0" encoding="utf-8"?>
<!-- Generator: Adobe Illustrator 26.4.1, SVG Export Plug-In . SVG Version: 6.00 Build 0)  -->
<svg version="1.1" id="katman_1" xmlns="http://www.w3.org/2000/svg" xmlns:xlink="http://www.w3.org/1999/xlink" x="0px" y="0px"
	 viewBox="0 0 610 467" style="enable-background:new 0 0 610 467;" xml:space="preserve">
<style type="text/css">
	.st0{fill:#001E2B;}
</style>
<g>
	<path class="st0" d="M88.7,179.8c-5.2-6.2-9.7-12.4-10.6-13.7c-0.1-0.1-0.2-0.1-0.3,0c-0.9,1.3-5.4,7.6-10.6,13.7
		c-44.6,56.9,7,95.3,7,95.3l0.4,0.3c0.4,5.9,1.3,14.5,1.3,14.5h1.9h1.9c0,0,1-8.5,1.3-14.5l0.4-0.3
		C81.7,275.1,133.3,236.7,88.7,179.8z M77.9,274.3c0,0-2.3-2-2.9-3v-0.1l2.8-62c0-0.2,0.3-0.2,0.3,0l2.8,62v0.1
		C80.2,272.3,77.9,274.3,77.9,274.3z"/>
	<path class="st0" d="M174.6,261.6l-21.5-52.6l-0.1-0.1h-16.8v3.5h2.7c0.8,0,1.6,0.3,2.2,0.9s0.9,1.4,0.9,2.2l-0.5,52.9
		c0,1.6-1.4,3-3,3l-2.8,0v3.5h16.3v-3.5l-1.7,0c-1.6,0-3-1.4-3-3v-49.9l23.5,56.5c0.3,0.8,1.1,1.4,2,1.4s1.6-0.5,2-1.4l22.9-55.2
		l0.3,48.6c0,1.7-1.4,3-3,3.1h-1.7v3.5h19.1v-3.5h-2.6c-1.6,0-3-1.4-3-3l-0.1-52.9c0-1.7,1.4-3.1,3-3.1l2.8-0.1v-3.5h-16.3
		L174.6,261.6z M324.7,270.6c-0.5-0.5-0.8-1.3-0.8-2.1v-26c0-4.9-1.5-8.8-4.4-11.6c-2.9-2.8-6.8-4.2-11.8-4.2
		c-6.9,0-12.4,2.8-16.2,8.3c0,0.1-0.2,0.1-0.3,0.1s-0.2-0.1-0.2-0.2l-1.8-6.9h-3l-7.7,4.4v2.4h2c0.9,0,1.7,0.2,2.2,0.7
		c0.5,0.5,0.8,1.2,0.8,2.2v30.6c0,0.9-0.3,1.6-0.8,2.1s-1.3,0.8-2.1,0.8h-1.9v3.5h17.7v-3.5h-1.9c-0.9,0-1.6-0.3-2.1-0.8
		s-0.8-1.3-0.8-2.1v-20.3c0-2.6,0.6-5.1,1.6-7.7c1.1-2.5,2.8-4.6,4.9-6.2s4.8-2.4,7.8-2.4c3.4,0,6,1.1,7.5,3.2
		c1.6,2.1,2.4,4.9,2.4,8.2v25c0,0.9-0.3,1.6-0.8,2.1s-1.3,0.8-2.1,0.8h-1.9v3.5h17.7v-3.5h-1.9C326,271.5,325.3,271.2,324.7,270.6z
		 M486.5,212.9c-4.9-2.6-10.4-4-16.3-4h-23v3.5h2.3c0.9,0,1.6,0.3,2.4,1.1c0.7,0.7,1.1,1.6,1.1,2.4v51.9c0,0.9-0.4,1.7-1.1,2.4
		s-1.5,1.1-2.4,1.1h-2.3v3.5h23c5.9,0,11.4-1.4,16.3-4c4.9-2.6,8.9-6.5,11.8-11.4c2.9-4.9,4.4-10.9,4.4-17.6s-1.5-12.6-4.4-17.6
		C495.4,219.3,491.4,215.5,486.5,212.9z M493.4,241.9c0,6.2-1.1,11.4-3.3,15.6c-2.2,4.2-5,7.3-8.6,9.4s-7.5,3-11.7,3h-4.7
		c-0.9,0-1.6-0.3-2.4-1.1c-0.7-0.7-1.1-1.5-1.1-2.4v-49c0-0.9,0.3-1.6,1.1-2.4c0.7-0.7,1.5-1.1,2.4-1.1h4.7c4.2,0,8.2,1,11.7,3
		s6.4,5.2,8.6,9.4C492.3,230.5,493.4,235.8,493.4,241.9z M557.1,245.4c-2.1-2.5-6.2-4.5-11.1-5.6c6.7-3.3,10.1-8,10.1-14.1
		c0-3.3-0.9-6.2-2.6-8.7c-1.7-2.5-4.2-4.5-7.3-5.9c-3.2-1.4-6.8-2.1-11-2.1h-26.1v3.5h2.1c0.9,0,1.6,0.3,2.4,1.1
		c0.7,0.7,1.1,1.6,1.1,2.4v52c0,0.9-0.4,1.7-1.1,2.4c-0.7,0.7-1.5,1.1-2.4,1.1h-2.3v3.5h28.3c4.3,0,8.3-0.7,12-2.2s6.5-3.6,8.6-6.4
		c2.1-2.8,3.2-6.2,3.2-10.2C561,252,559.7,248.4,557.1,245.4z M524.7,268.8c-0.7-0.7-1.1-1.5-1.1-2.4v-23.3H537
		c4.7,0,8.4,1.2,10.9,3.6c2.5,2.4,3.8,5.6,3.8,9.4c0,2.3-0.6,4.6-1.6,6.7c-1.1,2.1-2.8,3.8-5,5.1c-2.2,1.3-4.9,2-8,2h-9.9
		C526.2,269.9,525.4,269.5,524.7,268.8z M523.6,238.1v-20.7c0-0.9,0.3-1.6,1.1-2.4c0.7-0.7,1.5-1.1,2.4-1.1h6.4
		c4.6,0,8,1.2,10.1,3.4c2.1,2.3,3.2,5.2,3.2,8.7c0,3.7-1,6.6-3,8.8c-2,2.2-5,3.3-9,3.3L523.6,238.1L523.6,238.1z M257.3,229.8
		c-3.7-2-7.8-3.1-12.3-3.1c-4.4,0-8.4,1-12,2.9l-0.3,0.2c-3.7,2-6.6,5-8.8,8.7c-2.2,3.7-3.3,8-3.3,12.9s1.1,9.1,3.3,12.8
		c2.2,3.7,5.1,6.6,8.8,8.7s7.8,3.1,12.3,3.1c4.4,0,8.4-1,12-2.9l0.3-0.2c3.7-2,6.6-5,8.8-8.7s3.3-8,3.3-12.9s-1.1-9.1-3.3-12.9
		C263.9,234.8,261,231.9,257.3,229.8z M260.8,251.3c0,5.9-1.4,10.7-4.3,14.2c-2.8,3.5-6.7,5.2-11.5,5.2c-4.7,0-8.6-1.7-11.4-5.1
		l-0.1-0.2c-2.9-3.5-4.3-8.3-4.3-14.2c0-5.8,1.4-10.6,4.2-14l0.2-0.2c2.8-3.5,6.7-5.2,11.5-5.2s8.7,1.8,11.5,5.2
		C259.4,240.6,260.8,245.4,260.8,251.3z M427.5,229.8c-3.7-2-7.8-3.1-12.3-3.1c-4.4,0-8.4,1-12,2.9l-0.3,0.2c-3.7,2-6.6,5-8.8,8.7
		c-2.2,3.7-3.3,8-3.3,12.9s1.1,9.1,3.3,12.8c2.2,3.7,5.1,6.6,8.8,8.7s7.8,3.1,12.3,3.1c4.4,0,8.4-1,12-2.9l0.3-0.2
		c3.7-2,6.6-5,8.8-8.7s3.3-8,3.3-12.9s-1.1-9.1-3.3-12.9C434.1,234.8,431.1,231.9,427.5,229.8z M431,251.3c0,5.9-1.4,10.7-4.3,14.2
		c-2.8,3.5-6.7,5.2-11.5,5.2c-4.7,0-8.5-1.7-11.4-5.1l-0.1-0.2c-2.9-3.5-4.3-8.3-4.3-14.2c0-5.9,1.4-10.6,4.2-14l0.2-0.2
		c2.8-3.5,6.7-5.2,11.5-5.2s8.7,1.8,11.5,5.2C429.5,240.6,431,245.4,431,251.3z M358.8,226.8c-3.9,0-7.4,0.8-10.6,2.5
		s-5.7,3.9-7.5,6.7c-1.8,2.8-2.7,5.9-2.7,9.3c0,3,0.7,5.8,2.1,8.2c1.4,2.4,3.2,4.4,5.5,6l-6.9,9.4c-0.9,1.2-1,2.7-0.3,4
		c0.7,1.3,1.9,2.1,3.4,2.1h2c-1.9,1.2-3.4,2.7-4.4,4.5l-0.1,0.2c-1.3,2.1-1.9,4.2-1.9,6.5c0,4.1,1.8,7.5,5.3,10l0.2,0.1
		c3.6,2.6,8.6,3.9,14.9,3.9c4.4,0,8.6-0.7,12.4-2.1c3.8-1.4,6.8-3.4,9.1-6l0.2-0.2c2.4-2.7,3.6-6,3.6-9.8c0-4-1.5-6.8-4.8-9.5
		c-2.9-2.3-7.5-3.5-13.1-3.5h-19.3c0,0-0.1,0-0.1,0l0,0l0,0l0,0c0,0,0-0.1,0-0.1l5-6.8c1.4,0.6,2.6,1,3.7,1.3
		c1.2,0.2,2.5,0.3,3.9,0.3c4.1,0,7.7-0.8,10.9-2.5c3.2-1.6,5.8-3.9,7.6-6.7c1.8-2.8,2.8-5.9,2.8-9.3c0-3.6-1.7-10.1-6.5-13.4
		c0,0,0,0,0-0.1h0l0,0l10.4,1.2v-4.8h-16.6C364.3,227.2,361.6,226.8,358.8,226.8z M364.6,257c-1.8,1-3.8,1.5-5.8,1.5
		c-3.2,0-6.1-1.2-8.5-3.4c-2.4-2.3-3.6-5.6-3.6-9.9s1.2-7.6,3.6-9.9s5.3-3.4,8.5-3.4c2,0,3.8,0.4,5.6,1.4l0.2,0.1
		c1.8,1,3.3,2.5,4.5,4.4c1.2,2,1.8,4.4,1.8,7.4c0,2.9-0.6,5.4-1.8,7.4C368,254.5,366.5,256,364.6,257z M351.5,274.8h13.1
		c3.6,0,6,0.7,7.5,2.3c1.5,1.5,2.3,3.6,2.3,6c0,3.5-1.4,6.4-4.2,8.6c-2.8,2.2-6.6,3.3-11.2,3.3c-4.1,0-7.5-0.9-9.9-2.7
		c-2.5-1.7-3.7-4.4-3.7-7.8c0-2.1,0.6-4.1,1.7-5.9C348.3,277,349.7,275.7,351.5,274.8z"/>
</g>
</svg>
